<svg xmlns="http://www.w3.org/2000/svg" viewBox="0 0 512 512">
  <rect width="512" height="512" rx="100" fill="#0d9488"/>
  <path d="M256 96c-88.4 0-160 71.6-160 160 0 88.4 71.6 160 160 160s160-71.6 160-160c0-88.4-71.6-160-160-160zm0 288c-70.7 0-128-57.3-128-128s57.3-128 128-128 128 57.3 128 128-57.3 128-128 128z" fill="white" opacity="0.2"/>
  <path d="M256 128c-70.7 0-128 57.3-128 128s57.3 128 128 128 128-57.3 128-128-57.3-128-128-128zm-16 112h-48v32h48v48h32v-48h48v-32h-48v-48h-32v48z" fill="white"/>
</svg>